PathFileType	4	(X/Y/Z)	Run_500 02
DataRate	CameraRate	NumFrames	NumMarkers	Units	OrigDataRate	OrigDataStartFrame	OrigNumFrames
100	100	7	42	mm	100	213	128
Frame#	Time	RASI			RPSI			RTH1			RTH2			RTH3			LTH1			LTH2			LTH3			RTB1			RTB2			RTB3			LTB1			LTB2			LTB3			RCAL			RTOE			RMT5			LCAL			LTOE			LMT5			LACR			RACR			CLAV			C7			RUA1			RUA2			RUA3			RLEL			LUA1			LUA2			LUA3			LLEL			LMEL			RFAsuperior			RFAradius			RFAulna			LFAsuperior			LFAradius			LPSI			RMEL			LFAulna			LASI		
		X1	Y1	Z1	X2	Y2	Z2	X3	Y3	Z3	X4	Y4	Z4	X5	Y5	Z5	X6	Y6	Z6	X7	Y7	Z7	X8	Y8	Z8	X9	Y9	Z9	X10	Y10	Z10	X11	Y11	Z11	X12	Y12	Z12	X13	Y13	Z13	X14	Y14	Z14	X15	Y15	Z15	X16	Y16	Z16	X17	Y17	Z17	X18	Y18	Z18	X19	Y19	Z19	X20	Y20	Z20	X21	Y21	Z21	X22	Y22	Z22	X23	Y23	Z23	X24	Y24	Z24	X25	Y25	Z25	X26	Y26	Z26	X27	Y27	Z27	X28	Y28	Z28	X29	Y29	Z29	X30	Y30	Z30	X31	Y31	Z31	X32	Y32	Z32	X33	Y33	Z33	X34	Y34	Z34	X35	Y35	Z35	X36	Y36	Z36	X37	Y37	Z37	X38	Y38	Z38	X39	Y39	Z39	X40	Y40	Z40	X41	Y41	Z41	X42	Y42	Z42	

213	  2.130000	1065.510161	990.501292	-237.883696	898.540141	1055.111816	-284.357440	976.165354	872.390793	-192.856567	893.542030	740.534060	-210.775894	906.760142	581.896268	-215.059990	987.900908	885.168265	-535.118180	984.254151	722.116341	-481.667787	1089.547489	621.120708	-486.343861	756.654574	448.478006	-278.723125	729.562958	543.137481	-219.055201	579.550764	521.429653	-285.937467	1211.440598	426.204861	-413.420888	1123.357485	310.098686	-434.184340	1187.685511	213.495305	-365.965416	496.194951	668.799095	-279.332429	393.797874	451.284473	-317.339380	375.949845	501.893578	-226.180950	1063.816741	 95.793286	-305.582794	1299.591941	 79.733264	-316.388551	1247.759116	 29.237733	-398.702194	990.885624	1496.898549	-514.336028	1058.467180	1469.036751	-199.301471	1090.814689	1441.989527	-337.381515	963.327085	1510.429367	-348.432743	957.529462	1380.663750	-118.532399	1002.905247	1319.764278	-94.122275	942.954644	1251.064290	-39.336170	912.948069	1196.895093	 -4.676788	864.419174	1444.376056	-546.386195	863.467830	1365.735211	-587.231241	769.651239	1333.927950	-592.087765	727.751445	1276.998077	-609.556663	726.645621	1253.028489	-522.802051	1001.012908	1132.853810	-25.834188	1125.024355	1078.479861	-151.355814	1113.078260	1038.346828	-96.681914	772.309119	1206.604071	-620.992025	948.582475	1147.473341	-568.726308	882.198023	1064.274673	-397.930257	892.635471	1166.921309	-89.031181	915.144282	1093.914401	-602.716722	1048.124376	992.953740	-433.316257	
214	  2.140000	1063.593961	983.143898	-239.295799	896.709777	1049.223007	-283.592608	979.227970	865.004901	-191.754926	903.078832	729.868471	-207.124371	926.244038	571.442155	-210.236211	981.306982	880.304671	-537.114632	981.446036	718.173760	-483.040605	1087.391276	617.342918	-487.525090	783.439762	443.054982	-273.126392	758.383815	538.426452	-213.358496	609.047858	521.063810	-282.911170	1200.534296	421.196785	-407.342848	1103.697757	313.024482	-431.156116	1155.123761	211.573441	-358.020072	526.431291	671.576715	-282.013256	426.758557	450.743321	-306.837986	410.900957	505.558809	-217.510550	1016.251727	 98.769179	-298.594465	1252.626066	 75.451820	-310.678588	1196.247040	 32.875797	-396.135326	992.852978	1487.598835	-516.643654	1055.286068	1463.304467	-198.006742	1091.109446	1436.151618	-336.075508	962.975132	1503.763867	-351.132136	951.986896	1374.182864	-120.510206	996.706857	1313.344939	-93.539982	934.666222	1245.151209	-40.211941	902.564062	1192.824158	 -5.202356	868.636813	1427.792865	-552.814810	870.936759	1348.563643	-589.621066	777.821303	1313.780039	-595.942220	737.804712	1256.268118	-613.739827	736.175846	1233.630153	-526.468354	986.932090	1121.524108	-20.868197	1110.834527	1054.652876	-139.694482	1094.671828	1018.140361	-83.978318	783.549143	1185.540313	-623.087157	960.175317	1130.486901	-566.807507	878.740992	1059.753958	-396.736672	883.089505	1162.090523	-88.773682	928.136974	1075.705981	-599.831838	1044.654829	988.601222	-432.395458	
215	  2.150000	1060.231060	977.286614	-240.725227	894.098132	1044.852784	-283.293793	980.313487	859.699727	-192.433134	913.505597	720.530599	-203.494266	947.816914	563.508310	-206.241082	976.003940	876.754497	-538.669563	977.485865	714.925528	-482.609775	1081.680353	612.888445	-485.818272	813.661771	438.281749	-269.253174	788.276613	533.221811	-206.836935	640.308875	517.854517	-280.088286	1184.744279	414.614365	-401.411302	1080.148268	314.681437	-428.743580	1119.596942	209.159774	-353.758036	555.503443	669.676139	-283.249401	461.992239	445.129810	-297.296583	448.066680	502.635504	-208.975217	968.922126	101.140388	-296.032577	1205.631297	 74.676120	-309.039600	1147.031382	 35.451722	-395.290273	994.559163	1480.032760	-518.211965	1052.680103	1458.685251	-196.650593	1091.407710	1431.323809	-334.837879	963.591482	1499.570154	-353.349481	947.131552	1369.269784	-121.770535	990.423434	1308.244283	-93.138961	925.158155	1241.161816	-40.995727	891.054888	1190.237099	 -6.150214	873.989287	1411.533799	-558.775583	879.658553	1332.151570	-591.253244	787.725564	1293.688357	-600.144839	750.091115	1235.536656	-618.497589	747.411630	1214.124057	-530.838146	971.720208	1112.816193	-16.697839	1094.922132	1035.215340	-128.402263	1074.554141	1001.920719	-72.322612	796.999651	1164.365580	-625.408536	973.544917	1113.424399	-564.278133	875.419003	1056.216105	-396.027752	873.363127	1158.299566	-88.810883	942.818936	1057.656884	-596.566813	1041.320321	985.231576	-431.959325	
216	  2.160000	1055.944344	973.694698	-241.705303	890.787200	1042.119002	-284.056032	979.809610	856.788928	-194.309310	924.757663	713.288016	-200.855061	971.390686	559.186819	-203.057841	973.411217	874.165716	-538.863793	970.917339	711.945995	-480.707820	1071.309643	606.998567	-481.827139	846.744175	434.449938	-266.885775	819.151459	528.175521	-200.648350	672.872846	512.255843	-277.512824	1163.487992	404.953956	-396.381889	1052.726005	312.495621	-426.417563	1081.676882	204.450299	-351.750863	582.496890	663.394582	-282.889434	499.184370	434.506508	-289.152375	486.814470	493.135965	-200.952936	922.375073	102.735045	-296.601991	1159.343069	 73.739408	-309.256480	1099.985657	 35.900649	-396.021894	995.768032	1474.550359	-518.990210	1050.525755	1455.001960	-195.622516	1091.318283	1427.461490	-333.677674	964.550993	1497.259540	-354.222011	942.625119	1366.596222	-122.226940	983.655916	1305.117412	-92.969729	914.132169	1240.140978	-41.875766	878.224279	1190.158896	 -7.493278	879.762079	1397.316278	-562.473750	889.291770	1318.144225	-592.184529	799.556580	1274.956689	-604.274112	765.075122	1215.815516	-623.393393	760.541824	1195.325539	-535.524555	955.841978	1108.388689	-13.352237	1078.554038	1021.437959	-118.005711	1053.401235	990.697413	-62.346598	813.473726	1144.596683	-627.756929	989.135484	1097.479913	-561.152259	873.230477	1053.816591	-396.588972	863.444824	1156.537737	-89.679487	959.680957	1040.967275	-593.128680	1039.119319	983.000281	-432.793337	
217	  2.170000	1051.356545	972.257205	-241.731196	886.917382	1040.801570	-285.794096	978.284621	855.730641	-195.546224	936.552264	708.820472	-199.375869	996.686223	559.137558	-200.529533	972.959554	872.458137	-538.060790	961.667676	709.834318	-479.117584	1057.557036	600.631997	-477.600608	881.667333	431.898946	-265.660368	850.687485	523.622251	-195.864603	705.876862	504.778650	-275.135760	1138.035843	393.840629	-391.742973	1022.845633	307.692096	-423.692019	1042.604597	198.714726	-349.677986	607.012466	652.873938	-281.040923	538.153890	419.186755	-282.400412	526.143146	477.733633	-193.792993	876.788471	103.985696	-297.731591	1113.767415	 72.047576	-308.961452	1054.150937	 35.594138	-396.996083	996.764456	1471.115941	-519.271202	1048.291490	1452.568997	-194.870364	1090.595281	1424.673161	-332.385005	964.877896	1495.794885	-353.903014	937.578249	1366.452150	-122.503007	975.954967	1304.577204	-92.909354	901.894679	1242.549981	-43.095546	864.341404	1193.236148	 -9.165556	885.228096	1386.293498	-563.201748	899.395403	1307.639121	-592.781819	813.125270	1258.868974	-607.871143	782.416613	1198.398302	-627.772946	775.124819	1178.419867	-539.808035	939.512452	1108.570614	-10.857025	1062.720441	1013.948603	-108.695282	1032.077181	985.018179	-54.563307	833.023124	1128.098834	-629.834897	1006.865789	1084.453965	-557.425723	872.176164	1053.027167	-398.372847	852.639849	1158.053901	-91.300363	979.080126	1027.270643	-589.564880	1038.052573	982.379081	-434.850012	
218	  2.180000	1046.875759	972.295291	-240.437477	882.827707	1040.709709	-287.899430	975.783290	855.774494	-194.923679	948.447008	707.675868	-198.721054	1023.034184	563.672060	-198.714315	972.776938	871.629128	-537.246180	950.846089	709.237027	-479.149761	1042.135282	595.195332	-474.595631	917.453468	431.162616	-265.112597	882.294568	520.118488	-192.897454	738.360918	495.719119	-272.771798	1110.149125	383.987839	-387.023275	991.681341	303.404164	-420.728225	1003.617128	194.245960	-346.860771	629.139438	638.113820	-277.980275	578.815280	399.778854	-276.777449	565.146608	457.478118	-187.662957	832.499274	105.562744	-297.747996	1069.091106	 70.570026	-307.672998	1009.111452	 35.836377	-397.283548	998.238662	1469.503912	-519.411589	1045.294961	1452.035639	-194.109064	1089.252915	1423.283788	-330.723648	964.163589	1494.910392	-353.520166	931.194332	1368.766247	-123.419174	967.065047	1306.971934	-92.750321	889.078802	1248.091962	-44.693802	849.883197	1199.425209	-11.113492	890.400766	1378.684295	-562.294918	909.642405	1300.685462	-593.267791	827.605589	1246.340894	-610.596400	800.716218	1184.514803	-631.052055	790.072852	1164.743751	-542.971834	922.712070	1112.512889	 -9.176756	1047.789839	1012.640846	-100.348364	1011.380092	984.805043	-49.118613	854.320021	1116.281451	-631.263479	1025.935698	1076.497035	-553.171094	871.582613	1054.038932	-400.649691	840.374942	1163.528274	-93.244790	1000.755287	1018.541455	-585.842296	1037.446572	983.559058	-437.399654	
219	  2.190000	1042.759720	973.206749	-238.014548	879.086535	1041.900072	-289.863870	972.530976	856.768716	-192.825878	960.134667	710.045374	-198.689337	1049.306017	572.793961	-197.834771	971.447562	871.532162	-536.922943	939.539149	710.016139	-480.544176	1025.566353	591.302312	-472.780860	953.413715	432.837686	-264.535930	913.250343	518.481442	-191.516915	770.120258	485.202363	-270.315510	1080.933893	376.727239	-382.690896	959.503738	301.526865	-418.154425	965.254076	192.063061	-344.228760	649.379404	619.067939	-274.119097	621.157725	377.148998	-272.196290	603.783475	433.386636	-182.585086	789.719526	107.999388	-296.759588	1025.617691	 69.891085	-306.280035	964.990148	 36.694852	-396.916853	1000.821184	1469.490426	-519.613696	1041.120083	1453.834189	-193.227666	1087.514919	1423.596949	-328.665703	962.869381	1495.263087	-354.147640	923.326227	1373.270227	-125.403520	957.045402	1312.190899	-92.427813	876.128035	1256.038418	-46.518192	835.133729	1208.150554	-13.352830	896.070376	1374.176380	-562.196804	919.843693	1296.640428	-593.526532	841.715031	1237.781607	-612.354958	818.126926	1174.858562	-633.026520	804.315924	1155.214799	-544.744741	905.556554	1119.277566	 -8.213305	1033.553407	1016.701998	-92.863031	991.872593	989.405048	-45.594925	875.185770	1109.541382	-631.714694	1045.067754	1075.408151	-548.651108	870.906742	1056.451823	-402.745085	826.855273	1172.489784	-95.333842	1023.587892	1016.541757	-582.062873	1036.758188	986.140144	-439.767833	
